#!OML:ASF H:\ManfredObstacles\Project 1\Capture day 1\Session 1\Male.ASF
:FULLY-SPECIFIED
:DEGREES
548
root -2.61167 16.0971 -8.68737 -170.84 -11.0684 -176.707
lowerback -10.5582 -4.315 -0.135549
upperback 2.00023 -5.89047 1.60998
thorax 8.22972 -2.92058 0.743221
lowerneck 1.85344 -4.20968 -6.17177
upperneck -11.4402 -4.21907 12.2815
head -3.24264 -2.12519 4.88806
rclavicle 7.7526e-015 1.59028e-015
rhumerus -44.2815 -31.6111 -66.6427
rradius 22.0525
rwrist 42.3637
rhand 3.09247 -6.3886
rfingers 7.12502
rthumb 28.5489 -34.229
lclavicle 7.7526e-015 1.59028e-015
lhumerus -27.001 28.1259 78.9573
lradius 13.1362
lwrist -45.4694
lhand -9.90615 9.33708
lfingers 7.12502
lthumb 16.074 38.6904
rfemur -38.5758 -2.46507 23.7218
rtibia 34.744
rfoot -12.9437 9.70373
rtoes 21.6308
lfemur 0.681251 -7.63645 -14.8803
ltibia 24.2574
lfoot -2.91204 -20.9365
ltoes 13.3367
549
root -2.57004 16.1347 -8.8633 -170.861 -11.3022 -176.841
lowerback -10.3342 -4.37098 -0.435889
upperback 2.05779 -5.9225 1.59547
thorax 8.1936 -2.95081 0.902981
lowerneck 1.72875 -4.33873 -6.07736
upperneck -11.8576 -4.28894 12.4407
head -3.33541 -2.15286 4.92925
rclavicle 4.60683e-014 -2.5842e-015
rhumerus -43.1124 -30.4313 -68.1429
rradius 22.553
rwrist 41.0109
rhand 3.31645 -6.40985
rfingers 7.12502
rthumb 28.7629 -34.2141
lclavicle 4.60683e-014 -2.5842e-015
lhumerus -27.1335 27.8959 78.7824
lradius 13.0185
lwrist -45.233
lhand -9.47468 9.54678
lfingers 7.12502
lthumb 16.4895 38.8661
rfemur -37.8708 -2.93151 23.9628
rtibia 34.7367
rfoot -13.3385 10.0975
rtoes 22.185
lfemur 0.877969 -7.90419 -14.7502
ltibia 24.7062
lfoot -1.50655 -20.3482
ltoes 11.7826
550
root -2.5299 16.1659 -9.03569 -170.759 -11.607 -176.983
lowerback -10.1625 -4.47796 -0.752898
upperback 1.99243 -6.02595 1.64669
thorax 8.06724 -3.01871 1.12976
lowerneck 1.46468 -4.40713 -6.06565
upperneck -11.9735 -4.33343 12.4894
head -3.31916 -2.16047 4.93884
rclavicle -1.02623e-013 8.54774e-015
rhumerus -42.0996 -28.9969 -69.4411
rradius 23.0367
rwrist 39.8791
rhand 3.21832 -6.20606
rfingers 7.12502
rthumb 28.6692 -34.0262
lclavicle -1.02623e-013 8.54774e-015
lhumerus -27.3215 27.4407 78.797
lradius 13.0078
lwrist -44.951
lhand -9.04858 9.48213
lfingers 7.12502
lthumb 16.8997 38.7668
rfemur -37.3164 -3.59562 24.2493
rtibia 34.7583
rfoot -13.7452 10.5352
rtoes 22.9317
lfemur 0.935431 -8.04573 -14.5618
ltibia 25.0316
lfoot 0.280649 -19.8734
ltoes 11.7521
551
root -2.49651 16.1938 -9.20551 -170.64 -11.7689 -176.953
lowerback -10.0665 -4.48878 -0.789967
upperback 1.88167 -6.04039 1.72003
thorax 7.90578 -3.03074 1.23717
lowerneck 1.27322 -4.42579 -6.16596
upperneck -12.0326 -4.33501 12.5248
head -3.29999 -2.14728 4.96302
rclavicle 4.80562e-014 -1.39149e-015
rhumerus -41.2935 -27.7373 -70.4731
rradius 23.5364
rwrist 39.0176
rhand 2.71487 -5.92385
rfingers 7.12502
rthumb 28.1881 -33.8243
lclavicle 4.80562e-014 -1.39149e-015
lhumerus -27.506 26.8371 78.8797
lradius 13.0434
lwrist -44.8287
lhand -8.57563 9.34339
lfingers 7.12502
lthumb 17.3549 38.5886
rfemur -36.8556 -4.39541 24.7836
rtibia 34.8069
rfoot -14.2404 11.2525
rtoes 22.9521
lfemur 1.05645 -8.07583 -14.2103
ltibia 25.2148
lfoot 2.131 -19.2698
ltoes 13.4575
552
root -2.46717 16.2207 -9.36967 -170.393 -11.8273 -176.886
lowerback -10.1875 -4.48394 -0.70834
upperback 1.77318 -6.04433 1.7368
thorax 7.85183 -3.02898 1.20426
lowerneck 1.21881 -4.41655 -5.96561
upperneck -12.1917 -4.30575 12.3123
head -3.35288 -2.12807 4.86542
rclavicle -1.75427e-014 -3.57812e-015
rhumerus -40.4494 -26.5558 -71.6489
rradius 24.1135
rwrist 38.1016
rhand 2.21245 -6.03144
rfingers 7.12502
rthumb 27.7078 -34.0101
lclavicle -1.75427e-014 -3.57812e-015
lhumerus -27.5096 26.0551 79.036
lradius 13.1981
lwrist -44.5279
lhand -8.07257 9.4046
lfingers 7.12502
lthumb 17.839 38.6064
rfemur -36.5673 -5.16952 25.3307
rtibia 34.8373
rfoot -14.5971 12.1661
rtoes 23.4524
lfemur 1.12779 -8.06526 -13.8448
ltibia 25.3185
lfoot 3.38223 -18.8701
ltoes 12.9765
553
root -2.44122 16.249 -9.52833 -170.095 -11.8204 -176.786
lowerback -10.3977 -4.50335 -0.609443
upperback 1.69004 -6.08849 1.79553
thorax 7.88069 -3.04717 1.19043
lowerneck 1.23387 -4.391 -5.87667
upperneck -12.595 -4.2075 12.2501
head -3.48836 -2.07362 4.83959
rclavicle -9.80505e-014 7.55382e-015
rhumerus -39.4163 -25.4587 -72.7633
rradius 24.4821
rwrist 37.3243
rhand 1.78098 -6.19551
rfingers 7.12502
rthumb 27.2951 -34.2398
lclavicle -9.80505e-014 7.55382e-015
lhumerus -27.3066 25.0486 79.4841
lradius 13.4262
lwrist -43.6615
lhand -7.97017 9.36544
lfingers 7.12502
lthumb 17.9375 38.5582
rfemur -36.3575 -5.7132 25.8218
rtibia 34.8799
rfoot -14.9336 13.0096
rtoes 23.5041
lfemur 1.13431 -8.07433 -13.4852
ltibia 25.3335
lfoot 4.11183 -18.9153
ltoes 9.15893
